<?xml version="1.0" encoding="UTF-8"?><svg xmlns="http://www.w3.org/2000/svg" viewBox="0 0 1080 400.94"><defs><style>.cls-1{fill:#fff;}</style></defs><g id="Line"><path class="cls-1" d="M94.31,97.99c-.94,0-1.88-.36-2.6-1.08L17.43,22.63c-1.44-1.44-1.44-3.77,0-5.21s3.77-1.44,5.21,0l74.28,74.28c1.44,1.44,1.44,3.77,0,5.21-.72.72-1.66,1.08-2.6,1.08Z"/><path class="cls-1" d="M94.31,97.99c-.94,0-1.88-.36-2.6-1.08-1.44-1.44-1.44-3.77,0-5.21L165.99,17.43c1.44-1.44,3.77-1.44,5.21,0s1.44,3.77,0,5.21l-74.28,74.28c-.72.72-1.66,1.08-2.6,1.08Z"/><path class="cls-1" d="M317.16,172.27c-.94,0-1.88-.36-2.6-1.08L165.99,22.63c-1.44-1.44-1.44-3.77,0-5.21s3.77-1.44,5.21,0l148.56,148.56c1.44,1.44,1.44,3.77,0,5.21-.72.72-1.66,1.08-2.6,1.08Z"/><path class="cls-1" d="M168.59,172.27c-.94,0-1.88-.36-2.6-1.08-1.44-1.44-1.44-3.77,0-5.21L314.55,17.43c1.44-1.44,3.77-1.44,5.21,0s1.44,3.77,0,5.21l-148.56,148.56c-.72.72-1.66,1.08-2.6,1.08Z"/><path class="cls-1" d="M317.16,320.84c-.94,0-1.88-.36-2.6-1.08l-148.56-148.56c-1.44-1.44-1.44-3.77,0-5.21s3.77-1.44,5.21,0l148.56,148.56c1.44,1.44,1.44,3.77,0,5.21-.72.72-1.66,1.08-2.6,1.08Z"/><path class="cls-1" d="M168.59,320.84c-.94,0-1.88-.36-2.6-1.08-1.44-1.44-1.44-3.77,0-5.21l148.56-148.56c1.44-1.44,3.77-1.44,5.21,0s1.44,3.77,0,5.21l-148.56,148.56c-.72.72-1.66,1.08-2.6,1.08Z"/><path class="cls-1" d="M391.44,97.99c-.94,0-1.88-.36-2.6-1.08l-74.28-74.28c-1.44-1.44-1.44-3.77,0-5.21s3.77-1.44,5.21,0l74.28,74.28c1.44,1.44,1.44,3.77,0,5.21-.72.72-1.66,1.08-2.6,1.08Z"/><path class="cls-1" d="M391.44,97.99c-.94,0-1.88-.36-2.6-1.08-1.44-1.44-1.44-3.77,0-5.21l74.28-74.28c1.44-1.44,3.77-1.44,5.21,0s1.44,3.77,0,5.21l-74.28,74.28c-.72.72-1.66,1.08-2.6,1.08Z"/><path class="cls-1" d="M614.28,172.27c-.94,0-1.88-.36-2.6-1.08L463.12,22.63c-1.44-1.44-1.44-3.77,0-5.21s3.77-1.44,5.21,0l148.56,148.56c1.44,1.44,1.44,3.77,0,5.21-.72.72-1.66,1.08-2.6,1.08Z"/><path class="cls-1" d="M465.72,172.27c-.94,0-1.88-.36-2.6-1.08-1.44-1.44-1.44-3.77,0-5.21L611.68,17.43c1.44-1.44,3.77-1.44,5.21,0s1.44,3.77,0,5.21l-148.56,148.56c-.72.72-1.66,1.08-2.6,1.08Z"/><path class="cls-1" d="M614.28,320.84c-.94,0-1.88-.36-2.6-1.08l-148.56-148.56c-1.44-1.44-1.44-3.77,0-5.21s3.77-1.44,5.21,0l148.56,148.56c1.44,1.44,1.44,3.77,0,5.21-.72.72-1.66,1.08-2.6,1.08Z"/><path class="cls-1" d="M465.72,320.84c-.94,0-1.88-.36-2.6-1.08-1.44-1.44-1.44-3.77,0-5.21l148.56-148.56c1.44-1.44,3.77-1.44,5.21,0s1.44,3.77,0,5.21l-148.56,148.56c-.72.72-1.66,1.08-2.6,1.08Z"/><path class="cls-1" d="M688.56,97.99c-.94,0-1.88-.36-2.6-1.08l-74.28-74.28c-1.44-1.44-1.44-3.77,0-5.21s3.77-1.44,5.21,0l74.28,74.28c1.44,1.44,1.44,3.77,0,5.21-.72.72-1.66,1.08-2.6,1.08Z"/><path class="cls-1" d="M688.56,97.99c-.94,0-1.88-.36-2.6-1.08-1.44-1.44-1.44-3.77,0-5.21l74.28-74.28c1.44-1.44,3.77-1.44,5.21,0,1.44,1.44,1.44,3.77,0,5.21l-74.28,74.28c-.72.72-1.66,1.08-2.6,1.08Z"/><path class="cls-1" d="M911.41,172.27c-.94,0-1.88-.36-2.6-1.08L760.24,22.63c-1.44-1.44-1.44-3.77,0-5.21s3.77-1.44,5.21,0l148.56,148.56c1.44,1.44,1.44,3.77,0,5.21-.72.72-1.66,1.08-2.6,1.08Z"/><path class="cls-1" d="M762.84,172.27c-.94,0-1.88-.36-2.6-1.08-1.44-1.44-1.44-3.77,0-5.21L908.8,17.43c1.44-1.44,3.77-1.44,5.21,0s1.44,3.77,0,5.21l-148.56,148.56c-.72.72-1.66,1.08-2.6,1.08Z"/><path class="cls-1" d="M911.41,320.84c-.94,0-1.88-.36-2.6-1.08l-148.56-148.56c-1.44-1.44-1.44-3.77,0-5.21s3.77-1.44,5.21,0l148.56,148.56c1.44,1.44,1.44,3.77,0,5.21-.72.72-1.66,1.08-2.6,1.08Z"/><path class="cls-1" d="M762.84,320.84c-.94,0-1.88-.36-2.6-1.08-1.44-1.44-1.44-3.77,0-5.21l148.56-148.56c1.44-1.44,3.77-1.44,5.21,0s1.44,3.77,0,5.21l-148.56,148.56c-.72.72-1.66,1.08-2.6,1.08Z"/><path class="cls-1" d="M985.69,97.99c-.94,0-1.88-.36-2.6-1.08l-74.28-74.28c-1.44-1.44-1.44-3.77,0-5.21s3.77-1.44,5.21,0l74.28,74.28c1.44,1.44,1.44,3.77,0,5.21-.72.72-1.66,1.08-2.6,1.08Z"/><path class="cls-1" d="M985.69,97.99c-.94,0-1.88-.36-2.6-1.08-1.44-1.44-1.44-3.77,0-5.21l74.28-74.28c1.44-1.44,3.77-1.44,5.21,0s1.44,3.77,0,5.21l-74.28,74.28c-.72.72-1.66,1.08-2.6,1.08Z"/></g><g id="Container"><path class="cls-1" d="M911.41,320.84c-2.03,0-3.68-1.65-3.68-3.68v-148.56c0-2.03,1.65-3.68,3.68-3.68s3.68,1.65,3.68,3.68v148.56c0,2.03-1.65,3.68-3.68,3.68Z"/><path class="cls-1" d="M911.41,320.84h-148.56c-2.03,0-3.68-1.65-3.68-3.68s1.65-3.68,3.68-3.68h148.56c2.03,0,3.68,1.65,3.68,3.68s-1.65,3.68-3.68,3.68Z"/><path class="cls-1" d="M762.84,320.84c-2.03,0-3.68-1.65-3.68-3.68v-148.56c0-38.93-31.67-70.6-70.6-70.6s-70.6,31.67-70.6,70.6v148.56c0,2.03-1.65,3.68-3.68,3.68s-3.68-1.65-3.68-3.68v-148.56c0-42.99,34.97-77.96,77.96-77.96s77.96,34.97,77.96,77.96v148.56c0,2.03-1.65,3.68-3.68,3.68Z"/><path class="cls-1" d="M614.28,320.84h-148.56c-2.03,0-3.68-1.65-3.68-3.68s1.65-3.68,3.68-3.68h148.56c2.03,0,3.68,1.65,3.68,3.68s-1.65,3.68-3.68,3.68Z"/><path class="cls-1" d="M465.72,320.84c-2.03,0-3.68-1.65-3.68-3.68v-148.56c0-38.93-31.67-70.6-70.6-70.6s-70.6,31.67-70.6,70.6v148.56c0,2.03-1.65,3.68-3.68,3.68s-3.68-1.65-3.68-3.68v-148.56c0-42.99,34.97-77.96,77.96-77.96s77.96,34.97,77.96,77.96v148.56c0,2.03-1.65,3.68-3.68,3.68Z"/><path class="cls-1" d="M317.16,320.84h-148.56c-2.03,0-3.68-1.65-3.68-3.68s1.65-3.68,3.68-3.68h148.56c2.03,0,3.68,1.65,3.68,3.68s-1.65,3.68-3.68,3.68Z"/><path class="cls-1" d="M168.59,320.84c-2.03,0-3.68-1.65-3.68-3.68v-148.56c0-38.93-31.67-70.6-70.6-70.6H20.03c-2.03,0-3.68-1.65-3.68-3.68s1.65-3.68,3.68-3.68h74.28c42.99,0,77.96,34.97,77.96,77.96v148.56c0,2.03-1.65,3.68-3.68,3.68Z"/><path class="cls-1" d="M20.03,97.99c-2.03,0-3.68-1.65-3.68-3.68V20.03c0-2.03,1.65-3.68,3.68-3.68s3.68,1.65,3.68,3.68v74.28c0,2.03-1.65,3.68-3.68,3.68Z"/><path class="cls-1" d="M1059.97,23.71H20.03c-2.03,0-3.68-1.65-3.68-3.68s1.65-3.68,3.68-3.68h1039.94c2.03,0,3.68,1.65,3.68,3.68s-1.65,3.68-3.68,3.68Z"/><path class="cls-1" d="M1059.97,97.99c-2.03,0-3.68-1.65-3.68-3.68V20.03c0-2.03,1.65-3.68,3.68-3.68s3.68,1.65,3.68,3.68v74.28c0,2.03-1.65,3.68-3.68,3.68Z"/><path class="cls-1" d="M911.41,320.84c-2.03,0-3.68-1.65-3.68-3.68v-148.56c0-42.99,34.97-77.96,77.96-77.96h74.28c2.03,0,3.68,1.65,3.68,3.68s-1.65,3.68-3.68,3.68h-74.28c-38.93,0-70.6,31.67-70.6,70.6v148.56c0,2.03-1.65,3.68-3.68,3.68Z"/></g><g id="Dot"><circle class="cls-1" cx="20.03" cy="20.03" r="20.03"/><circle class="cls-1" cx="94.31" cy="94.31" r="20.03"/><circle class="cls-1" cx="168.59" cy="20.03" r="20.03"/><circle class="cls-1" cx="168.59" cy="168.59" r="20.03"/><circle class="cls-1" cx="168.59" cy="317.16" r="20.03"/><circle class="cls-1" cx="242.87" cy="94.31" r="20.03"/><circle class="cls-1" cx="242.87" cy="242.87" r="20.03"/><circle class="cls-1" cx="317.16" cy="20.03" r="20.03"/><circle class="cls-1" cx="317.16" cy="168.59" r="20.03"/><circle class="cls-1" cx="317.16" cy="317.16" r="20.03"/><circle class="cls-1" cx="391.44" cy="94.31" r="20.03"/><circle class="cls-1" cx="465.72" cy="20.03" r="20.03"/><circle class="cls-1" cx="465.72" cy="168.59" r="20.03"/><circle class="cls-1" cx="465.72" cy="316.79" r="20.03"/><circle class="cls-1" cx="540" cy="94.31" r="20.03"/><circle class="cls-1" cx="540" cy="242.87" r="20.03"/><circle class="cls-1" cx="614.28" cy="20.4" r="20.03"/><circle class="cls-1" cx="614.28" cy="168.59" r="20.03"/><circle class="cls-1" cx="614.28" cy="316.79" r="20.03"/><circle class="cls-1" cx="688.56" cy="94.31" r="20.03"/><circle class="cls-1" cx="762.84" cy="20.03" r="20.03"/><circle class="cls-1" cx="762.84" cy="168.59" r="20.03"/><circle class="cls-1" cx="762.84" cy="316.79" r="20.03"/><circle class="cls-1" cx="837.13" cy="94.31" r="20.03"/><circle class="cls-1" cx="837.13" cy="242.87" r="20.03"/><circle class="cls-1" cx="911.41" cy="20.03" r="20.03"/><circle class="cls-1" cx="911.41" cy="168.59" r="20.03"/><circle class="cls-1" cx="911.41" cy="317.16" r="20.03"/><circle class="cls-1" cx="985.69" cy="94.31" r="20.03"/><circle class="cls-1" cx="1059.97" cy="20.03" r="20.03"/></g></svg>
